<svg width="37" height="32" viewBox="0 0 37 32" fill="none" xmlns="http://www.w3.org/2000/svg">
<path d="M6.23183 30.2208C6.24853 31.1982 7.08811 31.9626 8.06553 31.9626H17.1338C18.1112 31.9626 18.955 31.1982 18.9675 30.2208C18.9842 29.2308 18.1822 28.4205 17.1965 28.4205H7.9987C7.01293 28.4205 6.21512 29.2266 6.23183 30.2208Z" fill="#5E49FF"/>
<path d="M12.3931 24.5021C12.3931 25.4795 13.2285 26.2732 14.256 26.2732H23.9216C24.9491 26.2732 25.7845 25.4795 25.7845 24.5021C25.7845 23.5247 24.9491 22.7311 23.9216 22.7311H14.256C13.2243 22.7311 12.3931 23.5247 12.3931 24.5021Z" fill="#5E49FF"/>
<path d="M7.34317 3.58387H1.79193C0.801985 3.58387 0 2.78189 0 1.79194C0 0.801988 0.801985 0 1.79193 0H7.34317C8.33312 0 9.1351 0.801988 9.1351 1.79194C9.13093 2.78189 8.33312 3.58387 7.34317 3.58387Z" fill="#3BD42D"/>
<path d="M12.6982 9.21455H7.14692C6.15697 9.21455 5.35498 8.41256 5.35498 7.42261C5.35498 6.43266 6.15697 5.63068 7.14692 5.63068H12.6982C13.6881 5.63068 14.4901 6.43266 14.4901 7.42261C14.4901 8.41256 13.6881 9.21455 12.6982 9.21455Z" fill="#3BD42D"/>
<path d="M31.5154 9.21455H17.7229C16.733 9.21455 15.931 8.41256 15.931 7.42261C15.931 6.43266 16.733 5.63068 17.7229 5.63068H31.5154C32.5053 5.63068 33.3073 6.43266 33.3073 7.42261C33.3031 8.41256 32.5053 9.21455 31.5154 9.21455Z" fill="#25CBD3"/>
<path d="M27.1589 14.9328H13.3665C12.3765 14.9328 11.5745 14.1308 11.5745 13.1409C11.5745 12.1509 12.3765 11.3489 13.3665 11.3489H27.1589C28.1489 11.3489 28.9509 12.1509 28.9509 13.1409C28.9467 14.1308 28.1447 14.9328 27.1589 14.9328Z" fill="#5E49FF"/>
<path d="M34.2349 20.6217H20.4424C19.4525 20.6217 18.6505 19.8197 18.6505 18.8298C18.6505 17.8398 19.4525 17.0378 20.4424 17.0378H34.2349C35.2249 17.0378 36.0268 17.8398 36.0268 18.8298C36.0268 19.8197 35.2249 20.6217 34.2349 20.6217Z" fill="#25CBD3"/>
<path d="M20.4128 3.58387H12.5016C11.5116 3.58387 10.7097 2.78189 10.7097 1.79194C10.7097 0.801988 11.5116 0 12.5016 0H20.4128C21.4028 0 22.2048 0.801988 22.2048 1.79194C22.2048 2.78189 21.4028 3.58387 20.4128 3.58387Z" fill="#5E49FF"/>
<path d="M27.2129 3.58387H25.5212C24.5313 3.58387 23.7293 2.78189 23.7293 1.79194C23.7293 0.801988 24.5313 0 25.5212 0H27.2129C28.2029 0 29.0049 0.801988 29.0049 1.79194C29.0049 2.78189 28.2029 3.58387 27.2129 3.58387Z" fill="#25CBD3"/>
<path d="M34.0674 14.9328H32.3757C31.3858 14.9328 30.5838 14.1308 30.5838 13.1409C30.5838 12.1509 31.3858 11.3489 32.3757 11.3489H34.0674C35.0574 11.3489 35.8594 12.1509 35.8594 13.1409C35.8594 14.1308 35.0574 14.9328 34.0674 14.9328Z" fill="#25CBD3"/>
<path d="M31.5153 26.311H29.0717C28.0818 26.311 27.2798 25.5091 27.2798 24.5191C27.2798 23.5292 28.0818 22.7272 29.0717 22.7272H31.5153C32.5052 22.7272 33.3072 23.5292 33.3072 24.5191C33.303 25.5091 32.5052 26.311 31.5153 26.311Z" fill="#25CBD3"/>
<path d="M3.1787 31.975H1.79193C0.801985 31.975 0 31.1731 0 30.1831C0 29.1932 0.801985 28.3912 1.79193 28.3912H3.1787C4.16865 28.3912 4.97063 29.1932 4.97063 30.1831C4.97063 31.1731 4.16865 31.975 3.1787 31.975Z" fill="#3BD42D"/>
<path d="M27.213 31.9999H22.2465C21.2566 31.9999 20.4546 31.198 20.4546 30.208C20.4546 29.2181 21.2566 28.4161 22.2465 28.4161H27.213C28.2029 28.4161 29.0049 29.2181 29.0049 30.208C29.0049 31.198 28.2029 31.9999 27.213 31.9999Z" fill="#25CBD3"/>
</svg>
